<?xml version="1.0" standalone="no"?>
<!DOCTYPE svg PUBLIC "-//W3C//DTD SVG 20010904//EN"
 "http://www.w3.org/TR/2001/REC-SVG-20010904/DTD/svg10.dtd">
<svg version="1.0" xmlns="http://www.w3.org/2000/svg"
 width="1024.000000pt" height="1024.000000pt" viewBox="0 0 1024.000000 1024.000000"
 preserveAspectRatio="xMidYMid meet">

<g transform="translate(0.000000,1024.000000) scale(0.100000,-0.100000)"
fill="#000000" stroke="none">
<path d="M2631 8169 c-141 -24 -259 -87 -371 -199 -91 -90 -141 -172 -176
-285 -18 -58 -19 -138 -19 -2105 l0 -2045 31 -87 c76 -211 235 -369 449 -445
l80 -28 720 -2 c396 -2 775 -3 843 -3 l123 0 -15 -28 c-8 -16 -47 -109 -86
-208 -39 -98 -78 -189 -85 -200 -13 -21 -24 -22 -182 -26 -154 -4 -173 -6
-223 -30 -89 -41 -136 -97 -176 -213 l-21 -60 -189 -5 c-157 -4 -195 -8 -222
-23 -77 -42 -93 -135 -32 -189 l30 -28 2005 0 c1420 0 2011 3 2028 11 55 25
75 114 36 163 -43 54 -69 61 -268 66 l-183 5 -18 57 c-32 103 -90 172 -185
219 -46 22 -63 24 -221 27 l-171 3 -27 57 c-27 59 -164 396 -162 399 1 1 377
4 836 6 928 5 881 2 1027 75 142 71 253 184 318 327 69 149 65 -1 65 2212 1
1970 0 1999 -19 2076 -59 226 -219 391 -478 490 l-58 22 -2475 1 c-1406 1
-2498 -2 -2529 -7z m4841 -527 c83 -41 158 -120 187 -197 21 -55 21 -65 21
-1413 0 -1472 2 -1400 -54 -1496 -33 -56 -113 -129 -172 -158 l-49 -23 -2270
0 -2270 0 -56 21 c-103 39 -175 114 -219 229 l-23 60 1 1368 1 1368 30 62 c16
34 45 80 64 102 34 40 123 91 182 106 17 4 1049 6 2295 5 l2265 -1 67 -33z
m-2280 -3613 c125 -26 216 -96 268 -204 36 -77 45 -135 30 -215 -16 -89 -45
-145 -109 -209 -78 -78 -156 -106 -279 -98 -111 7 -188 42 -255 117 -66 73
-91 144 -91 251 1 75 5 95 31 150 53 111 137 178 258 204 77 17 83 17 147 4z
m2366 -274 c28 -33 29 -84 1 -119 l-20 -26 -785 0 c-681 0 -789 2 -814 15 -56
29 -66 85 -24 134 l26 31 766 2 c422 2 781 0 797 -4 17 -4 40 -19 53 -33z
m-3222 2 c13 -15 24 -39 24 -53 0 -37 -26 -81 -52 -88 -13 -3 -371 -6 -796 -6
-855 0 -823 -2 -840 63 -11 43 -5 63 30 92 l30 25 790 -2 790 -3 24 -28z
m1374 -1115 c37 -18 80 -82 80 -119 l0 -22 -670 0 c-754 0 -690 -7 -647 79 41
83 15 80 647 80 508 0 558 -1 590 -18z"/>
<path d="M4336 7034 c-60 -22 -101 -58 -130 -116 l-26 -52 0 -291 c0 -328 4
-352 67 -419 143 -151 400 -88 443 108 8 33 10 148 8 331 -3 267 -4 282 -25
321 -28 53 -91 107 -142 122 -51 16 -147 14 -195 -4z"/>
<path d="M5703 7029 c-64 -25 -114 -80 -136 -150 -24 -73 -25 -549 -1 -628 21
-73 88 -144 156 -167 101 -33 231 -1 292 72 52 63 55 84 55 404 1 276 -1 298
-20 340 -43 95 -114 141 -224 147 -53 2 -82 -2 -122 -18z"/>
<path d="M5875 5750 c-53 -12 -86 -41 -140 -126 -80 -123 -182 -218 -285 -266
-100 -46 -182 -62 -320 -62 -155 -1 -218 13 -345 74 -106 50 -194 133 -274
253 -70 107 -99 127 -178 127 -80 0 -143 -55 -159 -137 -20 -104 157 -356 333
-473 207 -138 416 -197 668 -187 212 8 377 62 560 181 189 123 337 318 339
447 2 112 -93 193 -199 169z"/>
<path d="M5069 3846 c-91 -31 -133 -92 -133 -188 1 -105 80 -179 190 -179 166
0 249 175 143 304 -52 64 -128 87 -200 63z"/>
<path d="M2139 2185 c-58 -31 -78 -110 -45 -173 57 -110 246 -60 246 65 0 38
-33 89 -69 108 -37 19 -97 19 -132 0z"/>
<path d="M7985 2191 c-32 -14 -72 -63 -80 -97 -9 -44 16 -99 57 -124 26 -17
45 -20 87 -17 47 3 59 8 82 37 16 18 31 45 34 60 8 37 -15 100 -46 123 -30 21
-103 32 -134 18z"/>
<path d="M2655 2178 c-66 -36 -88 -92 -61 -150 30 -64 102 -85 162 -49 44 27
64 74 51 118 -12 38 -59 83 -87 83 -10 0 -24 2 -32 5 -7 2 -22 -1 -33 -7z"/>
<path d="M7505 2181 c-40 -17 -69 -59 -69 -100 0 -105 105 -159 182 -93 40 34
53 75 37 121 -20 59 -95 95 -150 72z"/>
</g>
</svg>
