<?xml version="1.0" standalone="no"?>
<!DOCTYPE svg PUBLIC "-//W3C//DTD SVG 20010904//EN"
 "http://www.w3.org/TR/2001/REC-SVG-20010904/DTD/svg10.dtd">
<svg version="1.0" xmlns="http://www.w3.org/2000/svg"
 width="1024.000000pt" height="1024.000000pt" viewBox="0 0 1024.000000 1024.000000"
 preserveAspectRatio="xMidYMid meet">

<g transform="translate(0.000000,1024.000000) scale(0.100000,-0.100000)"
fill="#000000" stroke="none">
<path d="M0 5120 l0 -5120 5120 0 5120 0 0 5120 0 5120 -5120 0 -5120 0 0
-5120z m6935 3464 c236 -71 430 -227 555 -444 58 -102 86 -185 100 -293 6 -52
10 -632 10 -1607 0 -1678 3 -1590 -63 -1732 -66 -143 -127 -223 -236 -310 -90
-72 -165 -111 -266 -138 -77 -21 -88 -21 -1989 -20 -1628 0 -1921 2 -1978 14
-251 54 -476 289 -548 572 -19 75 -20 118 -20 1653 0 1321 3 1587 15 1643 59
280 305 552 583 643 136 44 103 43 1982 42 1784 -2 1785 -2 1855 -23z m-4084
-4714 c66 -34 216 -76 294 -84 28 -2 219 -5 425 -6 336 -1 373 -2 355 -16 -59
-44 -258 -217 -312 -270 -96 -95 -145 -213 -137 -326 l4 -48 -403 0 c-221 -1
-429 -3 -462 -6 -181 -17 -355 -86 -480 -192 -123 -104 -182 -196 -290 -454
l-64 -153 -636 -3 c-349 -1 -635 0 -635 2 0 2 49 88 108 192 l109 189 356 5
c340 5 357 6 376 25 11 11 23 32 26 47 6 22 1 33 -23 58 l-30 30 -307 0 -306
0 37 58 c21 31 60 95 87 142 27 47 74 127 104 178 l55 92 409 0 c442 0 459 2
473 52 10 41 7 58 -19 83 l-24 25 -371 0 c-203 0 -370 4 -370 8 0 14 62 95
114 150 109 115 259 190 451 226 121 23 111 23 583 25 l443 1 60 -30z m5453
14 c266 -41 485 -160 597 -326 23 -33 39 -61 37 -64 -3 -2 -335 -4 -739 -4
-683 -1 -739 -2 -806 -19 -236 -61 -366 -259 -280 -427 44 -86 122 -145 242
-180 50 -14 118 -18 392 -23 l332 -6 -34 -51 c-19 -28 -46 -86 -61 -130 -23
-69 -27 -96 -28 -211 l-1 -133 -266 0 -265 0 -67 168 c-82 204 -128 288 -202
370 -122 134 -327 241 -495 259 l-56 5 0 87 c1 76 -3 93 -30 151 -40 86 -67
115 -258 284 -158 140 -159 141 -125 143 19 2 203 4 409 6 206 3 391 7 410 11
53 10 184 54 243 81 l52 25 449 0 c357 0 469 -3 550 -16z m-3239 -138 c82 -40
231 -94 538 -197 98 -32 186 -63 195 -69 11 -6 -144 -10 -458 -10 -261 -1
-692 -2 -957 -3 -266 -1 -482 1 -480 4 6 17 403 318 421 321 12 2 165 1 341
-2 l320 -5 80 -39z m4010 -470 c19 -30 56 -92 83 -138 26 -46 103 -177 171
-293 68 -115 157 -268 198 -340 42 -71 85 -145 95 -162 l20 -33 -246 0 -246 0
0 68 c0 137 -64 306 -157 413 -51 61 -168 145 -246 179 -98 43 -145 46 -672
43 -337 -2 -523 1 -570 8 -221 36 -276 179 -102 263 29 14 77 30 107 35 30 5
387 9 793 10 l737 1 35 -54z m-2745 1 c36 -18 53 -59 39 -90 -15 -33 -43 -47
-112 -56 -32 -4 -599 -7 -1260 -7 -1129 1 -1204 2 -1234 19 -60 32 -73 99 -26
135 25 18 2556 17 2593 -1z m382 -396 c149 -43 274 -142 342 -270 46 -88 186
-413 225 -524 62 -177 27 -306 -106 -384 -94 -55 26 -53 -2568 -53 -2526 0
-2446 -1 -2530 43 -73 37 -113 77 -144 138 -39 78 -41 146 -7 245 49 143 218
521 262 586 69 102 157 168 278 209 l81 28 2050 1 c1991 0 2052 -1 2117 -19z
m1692 -68 c2 -10 8 -37 11 -61 13 -83 91 -142 164 -122 60 16 75 40 74 118 0
37 1 70 4 74 10 18 86 -37 142 -104 68 -80 123 -186 139 -263 37 -174 -53
-355 -205 -414 -283 -110 -564 101 -564 422 0 154 56 266 170 339 53 33 58 34
65 11z m-6684 -665 c0 -7 -5 -33 -11 -58 -6 -25 -13 -56 -15 -70 -2 -14 -6
-39 -9 -56 -3 -16 1 -67 9 -112 36 -206 196 -366 418 -418 95 -23 4888 -21
4985 1 110 26 203 78 281 158 113 117 149 212 139 371 -3 50 -12 111 -21 135
-9 24 -13 47 -10 52 3 5 123 9 267 9 l262 -1 23 -48 c29 -62 132 -175 200
-218 238 -152 562 -119 754 78 40 42 78 93 95 129 l28 59 307 0 306 1 55 -92
c130 -218 186 -346 183 -413 -1 -20 -7 -20 -456 -25 -250 -3 -456 -7 -457 -8
-16 -16 -32 -67 -27 -86 14 -57 2 -56 485 -57 244 -1 447 -3 452 -6 15 -9 -66
-143 -121 -198 -103 -104 -272 -183 -467 -219 -44 -8 -105 -19 -135 -25 -62
-11 -624 -13 -4345 -12 -4243 1 -3985 -2 -4160 36 -115 25 -249 74 -314 113
-82 50 -175 143 -217 218 -60 107 -97 98 394 90 461 -7 462 -7 491 45 16 29
10 69 -15 93 -14 14 -69 16 -461 16 l-445 0 6 38 c11 78 56 178 163 356 36 61
70 117 76 124 14 18 1307 18 1307 0z"/>
<path d="M3415 8362 c-98 -10 -198 -36 -274 -73 -69 -34 -101 -58 -176 -133
-98 -98 -142 -170 -187 -301 l-23 -70 -3 -1139 c-2 -1014 -1 -1148 13 -1218
56 -271 232 -475 477 -550 l73 -23 1680 -3 c1778 -3 1762 -4 1897 43 194 68
353 250 415 475 17 61 18 143 18 1235 0 1302 5 1211 -68 1368 -84 182 -282
333 -492 377 -45 9 -3262 21 -3350 12z m3115 -286 c186 -40 352 -170 440 -346
68 -134 64 -70 67 -1108 4 -1056 8 -996 -69 -1152 -32 -66 -58 -102 -117 -160
-89 -89 -165 -132 -277 -158 -76 -18 -149 -18 -1560 -16 -1584 2 -1492 -1
-1609 49 -123 53 -241 176 -304 319 -57 131 -55 83 -58 1075 -3 778 -1 926 11
994 48 254 257 463 506 507 25 4 689 8 1475 9 1181 0 1441 -2 1495 -13z"/>
<path d="M3738 7936 c-166 -64 -306 -171 -392 -300 -76 -115 -138 -301 -140
-424 -1 -66 1 -76 23 -93 32 -26 84 -24 116 4 21 18 28 38 39 107 21 128 66
234 141 335 69 92 211 189 320 216 58 15 105 52 105 84 0 57 -48 106 -102 105
-13 -1 -62 -16 -110 -34z"/>
<path d="M4165 7405 c-5 -2 -36 -11 -69 -20 -167 -46 -260 -256 -185 -416 75
-160 222 -232 380 -185 216 63 298 333 153 505 -33 39 -105 90 -145 101 -36
11 -121 20 -134 15z m30 -142 c37 -38 35 -104 -4 -143 -54 -54 -118 -50 -159
11 -38 56 -10 133 58 155 43 14 74 7 105 -23z"/>
<path d="M5801 7390 c-96 -35 -149 -84 -194 -178 -26 -56 -29 -71 -25 -131 9
-122 71 -222 170 -276 48 -26 62 -29 148 -30 87 0 100 3 148 29 53 30 106 85
135 142 21 41 36 133 30 187 -20 184 -239 320 -412 257z m82 -128 c78 -72 -21
-220 -114 -172 -92 47 -72 178 31 201 33 7 49 1 83 -29z"/>
<path d="M4302 6530 c-62 -38 -68 -108 -19 -220 44 -102 99 -182 177 -261 104
-106 225 -175 375 -215 103 -27 310 -25 425 4 249 64 432 218 537 452 53 118
58 182 17 223 -32 33 -57 41 -98 33 -48 -9 -72 -41 -104 -137 -83 -250 -289
-393 -562 -393 -275 1 -489 144 -564 375 -35 110 -45 128 -78 145 -37 19 -67
18 -106 -6z"/>
<path d="M4987 4695 c-144 -39 -222 -178 -167 -301 43 -98 121 -154 219 -155
138 -2 241 97 241 231 0 156 -143 266 -293 225z"/>
<path d="M5868 4616 c-80 -29 -109 -100 -72 -179 21 -44 61 -67 115 -67 36 0
47 6 81 40 32 34 38 48 38 83 0 91 -79 152 -162 123z"/>
<path d="M6258 4604 c-79 -42 -76 -179 4 -220 38 -20 100 -14 137 14 61 45 61
145 0 196 -35 30 -97 34 -141 10z"/>
<path d="M6685 4606 c-77 -33 -94 -146 -31 -205 33 -31 94 -38 139 -16 64 30
87 120 45 181 -37 53 -90 67 -153 40z"/>
<path d="M2617 2739 c-108 -11 -174 -38 -226 -94 -50 -54 -62 -78 -155 -308
-99 -245 -111 -287 -96 -332 14 -42 59 -79 115 -94 29 -8 704 -10 2360 -8
l2320 2 49 25 c59 29 86 64 90 110 2 34 -128 397 -193 536 -33 70 -89 121
-166 150 -48 18 -114 19 -2030 20 -1089 1 -2019 -3 -2068 -7z m263 -139 c11
-6 20 -19 20 -29 0 -20 -41 -149 -53 -168 -6 -10 -56 -13 -193 -13 l-185 0 7
23 c7 24 38 98 57 135 22 45 70 60 204 61 72 1 131 -3 143 -9z m547 4 c12 -3
25 -14 28 -24 5 -17 -26 -158 -40 -180 -8 -12 -375 -14 -375 -2 0 8 40 128 55
164 14 35 65 48 190 48 66 0 130 -3 142 -6z m612 -12 c21 -16 22 -21 12 -87
-20 -130 10 -115 -232 -115 l-210 0 7 23 c4 12 12 47 18 77 22 110 40 119 232
120 130 0 155 -3 173 -18z m605 -3 c24 -19 26 -26 26 -94 0 -40 -3 -80 -6 -89
-5 -14 -34 -16 -214 -16 -118 0 -211 4 -215 9 -3 5 1 47 9 92 20 118 21 118
217 119 143 0 159 -2 183 -21z m584 1 c24 -23 28 -36 41 -128 5 -45 5 -65 -3
-68 -7 -3 -99 -3 -206 -2 l-195 3 -3 90 c-4 124 -4 124 194 125 137 0 152 -2
172 -20z m576 -2 c16 -15 30 -46 40 -89 29 -119 45 -109 -173 -109 -105 0
-192 4 -196 9 -3 5 -10 46 -16 91 -16 120 -16 120 172 120 139 0 149 -1 173
-22z m460 -9 c14 -17 26 -38 26 -47 0 -10 9 -42 20 -72 11 -30 16 -58 12 -62
-5 -5 -64 -7 -133 -6 l-124 3 -17 70 c-32 135 -25 145 102 145 86 0 89 -1 114
-31z m394 8 c23 -24 84 -181 74 -191 -3 -3 -49 -6 -103 -6 -112 0 -107 -4
-133 98 -28 110 -21 121 80 122 50 0 64 -4 82 -23z m-301 -352 c19 -13 63
-119 63 -152 0 -18 -263 -19 -278 0 -6 7 -17 41 -26 77 -14 60 -14 66 1 78 25
18 212 16 240 -3z m436 -9 c20 -22 57 -115 57 -144 0 -8 -32 -12 -105 -12
-118 0 -109 -6 -144 95 -27 76 -20 82 89 84 74 2 82 0 103 -23z m-4000 7 c4
-3 3 -11 -2 -17 -4 -6 -18 -38 -30 -71 -13 -33 -28 -63 -34 -67 -7 -4 -92 -8
-190 -8 -143 0 -179 3 -183 14 -6 16 31 112 54 139 13 15 36 17 197 17 100 0
185 -3 188 -7z m587 -5 c0 -7 -9 -44 -18 -83 l-18 -70 -197 -3 c-174 -2 -198
-1 -204 14 -6 15 29 115 50 142 7 9 59 12 198 12 145 0 189 -3 189 -12z m1918
-15 c6 -16 12 -53 14 -83 l3 -55 -874 -3 c-508 -1 -879 2 -884 7 -12 12 11
121 31 144 14 16 68 17 857 17 l843 0 10 -27z m594 10 c8 -10 22 -46 30 -80
14 -54 14 -63 1 -67 -22 -9 -376 -7 -389 2 -9 5 -34 121 -34 156 0 3 85 6 188
6 168 0 191 -2 204 -17z"/>
</g>
</svg>
